<svg width="24" height="24" viewBox="0 0 24 24" fill="none" xmlns="http://www.w3.org/2000/svg">
<path d="M19 17.7619V18.5714H5V17.7619L6.55556 16.1429V11.2857C6.55556 8.77619 8.13444 6.56619 10.4444 5.85381V5.61905C10.4444 5.18965 10.6083 4.77784 10.9001 4.47421C11.1918 4.17058 11.5874 4 12 4C12.4126 4 12.8082 4.17058 13.0999 4.47421C13.3917 4.77784 13.5556 5.18965 13.5556 5.61905V5.85381C15.8656 6.56619 17.4444 8.77619 17.4444 11.2857V16.1429L19 17.7619ZM13.5556 19.381C13.5556 19.8104 13.3917 20.2222 13.0999 20.5258C12.8082 20.8294 12.4126 21 12 21C11.5874 21 11.1918 20.8294 10.9001 20.5258C10.6083 20.2222 10.4444 19.8104 10.4444 19.381" fill="#111111"/>
</svg>
