<svg width="24" height="24" viewBox="0 0 24 24" fill="none" xmlns="http://www.w3.org/2000/svg">
<path d="M14.9961 9.99606L10.5214 13.996L8.99609 12.6326M19.9961 6.99608L19.9961 16.9961C19.9961 18.653 18.6529 19.9961 16.9961 19.9961H6.99609C5.33924 19.9961 3.99609 18.653 3.99609 16.9961V6.99608C3.99609 5.33923 5.33924 3.99609 6.99609 3.99609H16.9961C18.6529 3.99609 19.9961 5.33923 19.9961 6.99608Z" stroke="black" stroke-width="2" stroke-linecap="round" stroke-linejoin="round"/>
<path d="M6.99609 19.9961C5.33924 19.9961 3.99609 18.653 3.99609 16.9961V6.99608C3.99609 5.33923 5.33924 3.99609 6.99609 3.99609H16.9961C18.6529 3.99609 19.9961 5.33923 19.9961 6.99608L19.9961 16.9961C19.9961 18.653 18.6529 19.9961 16.9961 19.9961H6.99609Z" fill="#132650"/>
<path d="M14.9961 9.99606L10.5214 13.996L8.99609 12.6326M14.9941 9.99609L10.5194 13.9961L8.99414 12.6326M19.9961 6.99608L19.9961 16.9961C19.9961 18.653 18.6529 19.9961 16.9961 19.9961H6.99609C5.33924 19.9961 3.99609 18.653 3.99609 16.9961V6.99608C3.99609 5.33923 5.33924 3.99609 6.99609 3.99609H16.9961C18.6529 3.99609 19.9961 5.33923 19.9961 6.99608Z" stroke="#132650" stroke-width="2" stroke-linecap="round" stroke-linejoin="round"/>
<path d="M15.002 10.5L10.5273 14.5L9.00195 13.1365M15 10.5L10.5253 14.5L9 13.1365" stroke="white" stroke-width="2" stroke-linecap="round" stroke-linejoin="round"/>
</svg>
