<svg width="16" height="16" viewBox="0 0 16 16" fill="none" xmlns="http://www.w3.org/2000/svg">
<path d="M9.99935 6.66599L7.01622 9.33264L5.99935 8.42365M13.3327 4.666L13.3327 11.3327C13.3327 12.4373 12.4373 13.3327 11.3327 13.3327H4.66602C3.56145 13.3327 2.66602 12.4373 2.66602 11.3327V4.666C2.66602 3.56144 3.56145 2.66602 4.66602 2.66602H11.3327C12.4373 2.66602 13.3327 3.56144 13.3327 4.666Z" stroke="black" stroke-width="1.33333" stroke-linecap="round" stroke-linejoin="round"/>
<path d="M4.66406 13.3307C3.55949 13.3307 2.66406 12.4353 2.66406 11.3307V4.66405C2.66406 3.55949 3.55949 2.66406 4.66406 2.66406H11.3307C12.4353 2.66406 13.3307 3.55949 13.3307 4.66405L13.3307 11.3307C13.3307 12.4353 12.4353 13.3307 11.3307 13.3307H4.66406Z" fill="#D44242"/>
<path d="M9.9974 6.66404L7.01426 9.33069L5.9974 8.4217M9.99609 6.66406L7.01296 9.33071L5.99609 8.42173M13.3307 4.66405L13.3307 11.3307C13.3307 12.4353 12.4353 13.3307 11.3307 13.3307H4.66406C3.55949 13.3307 2.66406 12.4353 2.66406 11.3307V4.66405C2.66406 3.55949 3.55949 2.66406 4.66406 2.66406H11.3307C12.4353 2.66406 13.3307 3.55949 13.3307 4.66405Z" stroke="#D44242" stroke-width="1.33333" stroke-linecap="round" stroke-linejoin="round"/>
<path d="M10.0013 7L7.01817 9.66665L6.0013 8.75766M10 7.00002L7.01687 9.66667L6 8.75769" stroke="white" stroke-width="1.33333" stroke-linecap="round" stroke-linejoin="round"/>
</svg>
