<svg width="18" height="18" viewBox="0 0 18 18" fill="none" xmlns="http://www.w3.org/2000/svg">
<path d="M15.2222 4H2.77778C1.79594 4 1 4.77604 1 5.73333V15.2667C1 16.224 1.79594 17 2.77778 17H15.2222C16.2041 17 17 16.224 17 15.2667V5.73333C17 4.77604 16.2041 4 15.2222 4Z" stroke="black" stroke-width="1.5"/>
<path d="M1 7C1 5.5855 1 4.879 1.52089 4.4395C2.04178 4 2.87911 4 4.55556 4H13.4444C15.1209 4 15.9582 4 16.4791 4.4395C17 4.879 17 5.5855 17 7H1Z" fill="black"/>
<path d="M5 1V4M13 1V4" stroke="black" stroke-width="1.5" stroke-linecap="round"/>
</svg>
