<svg width="24" height="24" viewBox="0 0 24 24" fill="none" xmlns="http://www.w3.org/2000/svg">
<path d="M18.2222 7H5.77778C4.79594 7 4 7.77604 4 8.73333V18.2667C4 19.224 4.79594 20 5.77778 20H18.2222C19.2041 20 20 19.224 20 18.2667V8.73333C20 7.77604 19.2041 7 18.2222 7Z" stroke="black" stroke-width="1.5"/>
<path d="M4 10C4 8.5855 4 7.879 4.52089 7.4395C5.04178 7 5.87911 7 7.55556 7H16.4444C18.1209 7 18.9582 7 19.4791 7.4395C20 7.879 20 8.5855 20 10H4Z" fill="black"/>
<path d="M8 4V7M16 4V7" stroke="black" stroke-width="1.5" stroke-linecap="round"/>
</svg>
