<svg width="24" height="24" viewBox="0 0 24 24" fill="none" xmlns="http://www.w3.org/2000/svg">
<path d="M18 10.6635V18.1538C18 18.6435 17.8104 19.1131 17.4728 19.4593C17.1352 19.8055 16.6774 20 16.2 20H7.8C7.32261 20 6.86477 19.8055 6.52721 19.4593C6.18964 19.1131 6 18.6435 6 18.1538V5.84615C6 5.35652 6.18964 4.88695 6.52721 4.54073C6.86477 4.19451 7.32261 4 7.8 4H11.5031C11.8213 4.00005 12.1264 4.12968 12.3514 4.36038L17.6486 9.79346C17.8736 10.0242 18 10.3372 18 10.6635Z" stroke="black" stroke-width="1.5" stroke-linejoin="round"/>
<path d="M12.1034 4V8.61538C12.1034 8.94181 12.2342 9.25486 12.467 9.48567C12.6998 9.71648 13.0156 9.84615 13.3448 9.84615H18M9 12.9231H15.2069M9 16H15.2069" stroke="black" stroke-width="1.5" stroke-linecap="round" stroke-linejoin="round"/>
</svg>
