<svg width="24" height="24" viewBox="0 0 24 24" fill="none" xmlns="http://www.w3.org/2000/svg">
<path d="M19.1667 15H15.8333C15.3731 15 15 15.3731 15 15.8333V19.1667C15 19.6269 15.3731 20 15.8333 20H19.1667C19.6269 20 20 19.6269 20 19.1667V15.8333C20 15.3731 19.6269 15 19.1667 15Z" stroke="black" stroke-width="1.5" stroke-linecap="round" stroke-linejoin="round"/>
<path d="M8.16667 15H4.83333C4.3731 15 4 15.3731 4 15.8333V19.1667C4 19.6269 4.3731 20 4.83333 20H8.16667C8.6269 20 9 19.6269 9 19.1667V15.8333C9 15.3731 8.6269 15 8.16667 15Z" stroke="black" stroke-width="1.5" stroke-linecap="round" stroke-linejoin="round"/>
<path d="M13.6667 4H10.3333C9.8731 4 9.5 4.3731 9.5 4.83333V8.16667C9.5 8.6269 9.8731 9 10.3333 9H13.6667C14.1269 9 14.5 8.6269 14.5 8.16667V4.83333C14.5 4.3731 14.1269 4 13.6667 4Z" stroke="black" stroke-width="1.5" stroke-linecap="round" stroke-linejoin="round"/>
<path d="M6 15V12.75C6 12.5511 6.09031 12.3603 6.25105 12.2197C6.4118 12.079 6.62981 12 6.85714 12H17.1429C17.3702 12 17.5882 12.079 17.7489 12.2197C17.9097 12.3603 18 12.5511 18 12.75V15M12 12V9" stroke="black" stroke-width="1.5" stroke-linecap="round" stroke-linejoin="round"/>
</svg>
