<svg width="24" height="24" viewBox="0 0 24 24" fill="none" xmlns="http://www.w3.org/2000/svg">
<path d="M21.1431 6.85603H8.57171M6.28599 6.85603H2.85742M21.1431 18.2846H8.57171M6.28599 18.2846H2.85742M15.4289 12.5703H2.85742M21.1431 12.5703H17.7146M7.42885 4.57031C7.73196 4.57031 8.02265 4.69072 8.23697 4.90505C8.4513 5.11938 8.57171 5.41007 8.57171 5.71317V7.99888C8.57171 8.30199 8.4513 8.59268 8.23697 8.80701C8.02265 9.02133 7.73196 9.14174 7.42885 9.14174C7.12575 9.14174 6.83506 9.02133 6.62073 8.80701C6.4064 8.59268 6.28599 8.30199 6.28599 7.99888V5.71317C6.28599 5.41007 6.4064 5.11938 6.62073 4.90505C6.83506 4.69072 7.12575 4.57031 7.42885 4.57031ZM7.42885 15.9989C7.73196 15.9989 8.02265 16.1193 8.23697 16.3336C8.4513 16.5479 8.57171 16.8386 8.57171 17.1417V19.4275C8.57171 19.7306 8.4513 20.0213 8.23697 20.2356C8.02265 20.4499 7.73196 20.5703 7.42885 20.5703C7.12575 20.5703 6.83506 20.4499 6.62073 20.2356C6.4064 20.0213 6.28599 19.7306 6.28599 19.4275V17.1417C6.28599 16.8386 6.4064 16.5479 6.62073 16.3336C6.83506 16.1193 7.12575 15.9989 7.42885 15.9989ZM16.5717 10.2846C16.8748 10.2846 17.1655 10.405 17.3798 10.6193C17.5942 10.8337 17.7146 11.1244 17.7146 11.4275V13.7132C17.7146 14.0163 17.5942 14.307 17.3798 14.5213C17.1655 14.7356 16.8748 14.856 16.5717 14.856C16.2686 14.856 15.9779 14.7356 15.7636 14.5213C15.5493 14.307 15.4289 14.0163 15.4289 13.7132V11.4275C15.4289 11.1244 15.5493 10.8337 15.7636 10.6193C15.9779 10.405 16.2686 10.2846 16.5717 10.2846Z" stroke="black" stroke-width="1.5" stroke-linecap="round" stroke-linejoin="round"/>
</svg>
