<svg width="24" height="24" viewBox="0 0 24 24" fill="none" xmlns="http://www.w3.org/2000/svg">
<g clip-path="url(#clip0_2485_64028)">
<path fill-rule="evenodd" clip-rule="evenodd" d="M11.9985 0.957031C5.74597 0.957031 0.675781 6.02609 0.675781 12.2798C0.675781 17.2827 3.92009 21.5267 8.41897 23.0241C8.98466 23.1291 9.19241 22.7785 9.19241 22.4794C9.19241 22.2094 9.18191 21.3175 9.17703 20.3713C6.02703 21.0563 5.36234 19.0354 5.36234 19.0354C4.84728 17.7267 4.10516 17.3787 4.10516 17.3787C3.07766 16.6759 4.18259 16.6905 4.18259 16.6905C5.31941 16.7702 5.91828 17.8573 5.91828 17.8573C6.92816 19.588 8.56709 19.0877 9.21322 18.7986C9.31484 18.0668 9.60828 17.5671 9.93209 17.2843C7.41716 16.9984 4.77322 16.0273 4.77322 11.6888C4.77322 10.4526 5.21572 9.44253 5.94003 8.64941C5.82228 8.36441 5.43472 7.21278 6.04953 5.65316C6.04953 5.65316 7.00016 5.34884 9.16391 6.81378C10.0673 6.56272 11.0361 6.43653 11.9985 6.43222C12.9604 6.43653 13.9298 6.56234 14.8348 6.81341C16.996 5.34847 17.9455 5.65278 17.9455 5.65278C18.5618 7.21222 18.1742 8.36403 18.0567 8.64903C18.7827 9.44216 19.222 10.4522 19.222 11.6884C19.222 16.0373 16.5732 16.9947 14.0518 17.2752C14.4582 17.6265 14.82 18.3158 14.82 19.372C14.82 20.887 14.8069 22.1063 14.8069 22.4792C14.8069 22.7805 15.0109 23.1336 15.5847 23.0224C20.0809 21.5235 23.3215 17.2808 23.3215 12.2798C23.3213 6.02647 18.2517 0.957031 11.9985 0.957031Z" fill="#181616"/>
<path d="M4.9636 17.2151C4.93866 17.2714 4.85016 17.2882 4.76953 17.2498C4.68703 17.213 4.6411 17.1364 4.66772 17.0799C4.6921 17.0218 4.78078 17.0059 4.86272 17.0447C4.94522 17.0816 4.9921 17.159 4.96341 17.2153L4.9636 17.2151ZM5.42222 17.7268C5.36841 17.7769 5.26285 17.7536 5.19122 17.6743C5.11697 17.5955 5.1031 17.49 5.15803 17.4392C5.21391 17.3893 5.31628 17.4129 5.39053 17.4917C5.46441 17.5715 5.47903 17.6762 5.42241 17.727L5.42222 17.7268ZM5.86885 18.3787C5.79947 18.4271 5.68585 18.3819 5.61572 18.2812C5.54635 18.1804 5.54635 18.0594 5.6176 18.0112C5.68753 17.9629 5.79947 18.0065 5.87072 18.1063C5.93972 18.2085 5.93972 18.3296 5.86885 18.3787ZM6.48029 19.0089C6.41841 19.0774 6.28603 19.059 6.18928 18.9658C6.09047 18.8745 6.06291 18.7445 6.12497 18.6763C6.18797 18.6077 6.32091 18.6268 6.41822 18.7194C6.51704 18.8105 6.54685 18.9407 6.48066 19.0087L6.48029 19.0089ZM7.32404 19.3747C7.29647 19.4634 7.16935 19.5037 7.04091 19.4659C6.91285 19.427 6.82904 19.3234 6.85529 19.2337C6.88154 19.1443 7.0096 19.1025 7.13878 19.1428C7.26685 19.1814 7.35066 19.2845 7.32404 19.3747ZM8.25085 19.4424C8.25403 19.5358 8.14528 19.613 8.01085 19.6149C7.87528 19.6181 7.7656 19.5424 7.76429 19.4505C7.76429 19.3562 7.87078 19.2799 8.00616 19.2772C8.1406 19.2748 8.25103 19.3498 8.25103 19.4422L8.25085 19.4424ZM9.11297 19.2958C9.1291 19.3867 9.03553 19.4803 8.90185 19.5052C8.7706 19.5296 8.64872 19.473 8.63185 19.3828C8.61572 19.2894 8.71097 19.1959 8.84222 19.1717C8.9761 19.1486 9.0961 19.2034 9.11297 19.2958Z" fill="#181616"/>
</g>
<defs>
<clipPath id="clip0_2485_64028">
<rect width="24" height="24" fill="white"/>
</clipPath>
</defs>
</svg>
