<svg width="30" height="30" viewBox="0 0 30 30" fill="none" xmlns="http://www.w3.org/2000/svg">
<path fill-rule="evenodd" clip-rule="evenodd" d="M14.9991 1.19141C7.18344 1.19141 0.845703 7.52773 0.845703 15.3448C0.845703 21.5984 4.90109 26.9035 10.5247 28.7752C11.2318 28.9065 11.4915 28.4682 11.4915 28.0944C11.4915 27.7569 11.4784 26.642 11.4723 25.4593C7.53477 26.3155 6.70391 23.7894 6.70391 23.7894C6.06008 22.1534 5.13242 21.7184 5.13242 21.7184C3.84805 20.84 5.22922 20.8583 5.22922 20.8583C6.65023 20.9579 7.39883 22.3168 7.39883 22.3168C8.66117 24.4801 10.7098 23.8548 11.5175 23.4934C11.6445 22.5786 12.0113 21.954 12.4161 21.6005C9.27242 21.2431 5.9675 20.0293 5.9675 14.6061C5.9675 13.0609 6.52063 11.7983 7.42602 10.8069C7.27883 10.4506 6.79437 9.01109 7.56289 7.06156C7.56289 7.06156 8.75117 6.68117 11.4559 8.51234C12.5851 8.19852 13.7961 8.04078 14.9991 8.03539C16.2015 8.04078 17.4132 8.19805 18.5445 8.51188C21.2459 6.6807 22.4328 7.06109 22.4328 7.06109C23.2032 9.01039 22.7188 10.4502 22.5718 10.8064C23.4793 11.7978 24.0284 13.0604 24.0284 14.6056C24.0284 20.0417 20.7174 21.2384 17.5658 21.5891C18.0737 22.0283 18.526 22.8898 18.526 24.2101C18.526 26.1038 18.5096 27.628 18.5096 28.0941C18.5096 28.4708 18.7646 28.9121 19.4818 28.7731C25.1021 26.8995 29.1528 21.5961 29.1528 15.3448C29.1526 7.5282 22.8155 1.19141 14.9991 1.19141Z" fill="white"/>
<path d="M6.20547 21.5189C6.1743 21.5892 6.06368 21.6103 5.96289 21.5622C5.85977 21.5163 5.80235 21.4204 5.83563 21.3499C5.8661 21.2772 5.97696 21.2573 6.07938 21.3058C6.1825 21.352 6.2411 21.4488 6.20524 21.5191L6.20547 21.5189ZM6.77875 22.1585C6.71149 22.2211 6.57954 22.192 6.49 22.0929C6.39719 21.9944 6.37985 21.8625 6.44852 21.799C6.51836 21.7366 6.64633 21.7661 6.73914 21.8646C6.83149 21.9644 6.84977 22.0952 6.77899 22.1587L6.77875 22.1585ZM7.33704 22.9734C7.25032 23.0339 7.10829 22.9774 7.02063 22.8515C6.93391 22.7254 6.93391 22.5743 7.02297 22.514C7.1104 22.4536 7.25032 22.5082 7.33938 22.6329C7.42563 22.7606 7.42563 22.912 7.33704 22.9734ZM8.10133 23.7611C8.02399 23.8467 7.85852 23.8237 7.73758 23.7072C7.61407 23.5931 7.57961 23.4307 7.65719 23.3454C7.73594 23.2596 7.90211 23.2835 8.02375 23.3993C8.14727 23.5132 8.18454 23.6758 8.1018 23.7609L8.10133 23.7611ZM9.15602 24.2184C9.12157 24.3293 8.96266 24.3797 8.80211 24.3323C8.64204 24.2838 8.53727 24.1542 8.57008 24.0422C8.6029 23.9304 8.76297 23.8781 8.92446 23.9285C9.08454 23.9768 9.1893 24.1057 9.15602 24.2184ZM10.3145 24.303C10.3185 24.4197 10.1826 24.5163 10.0145 24.5187C9.84508 24.5226 9.70797 24.4279 9.70633 24.3131C9.70633 24.1952 9.83946 24.0998 10.0087 24.0965C10.1767 24.0935 10.3148 24.1872 10.3148 24.3028L10.3145 24.303ZM11.3922 24.1197C11.4123 24.2334 11.2954 24.3504 11.1283 24.3815C10.9642 24.412 10.8119 24.3412 10.7908 24.2285C10.7706 24.1118 10.8897 23.9948 11.0538 23.9646C11.2211 23.9358 11.3711 24.0042 11.3922 24.1197Z" fill="white"/>
</svg>
