<svg width="24" height="24" viewBox="0 0 24 24" fill="none" xmlns="http://www.w3.org/2000/svg">
<path d="M16.4444 4H20M20 4V7.55538M20 4L9.96181 14.0376M9.96181 14.0376C10.1285 14.2043 10.2222 14.4304 10.2222 14.6661V16.4438C10.2225 16.6431 10.1834 16.8405 10.1071 17.0246C10.0308 17.2088 9.91889 17.376 9.77772 17.5167L7.4257 19.8694C7.36354 19.9317 7.28428 19.9742 7.19796 19.9914C7.11164 20.0086 7.02215 19.9998 6.94084 19.9661C6.85953 19.9324 6.79006 19.8753 6.74124 19.8021C6.69241 19.7289 6.66643 19.6428 6.66659 19.5548V18.2215C6.66659 17.9858 6.57294 17.7597 6.40624 17.593C6.23954 17.4263 6.01344 17.3327 5.77769 17.3327H4.44435C4.35641 17.3327 4.27045 17.3065 4.19735 17.2577C4.12425 17.2088 4.0673 17.1393 4.03371 17.058C4.00011 16.9767 3.99138 16.8873 4.00863 16.8011C4.02587 16.7149 4.06831 16.6357 4.13057 16.5736L6.48259 14.2217C6.62327 14.0805 6.7905 13.9686 6.97464 13.8923C7.15877 13.8161 7.35617 13.777 7.55548 13.7773H9.33327C9.56902 13.7773 9.79511 13.8709 9.96181 14.0376Z" stroke="black" stroke-width="1.5" stroke-linecap="round"/>
</svg>
