<svg width="24" height="24" viewBox="0 0 24 24" fill="none" xmlns="http://www.w3.org/2000/svg">
<path d="M16.9999 3H20.9999M20.9999 3V7M20.9999 3L9.707 14.2929M9.707 14.2929C9.89454 14.4804 9.99989 14.7348 9.99989 15V17C10.0003 17.2242 9.95628 17.4463 9.87047 17.6535C9.78466 17.8606 9.65872 18.0487 9.49989 18.207L6.85389 20.854C6.78396 20.9241 6.69479 20.9719 6.59768 20.9912C6.50058 21.0106 6.3999 21.0007 6.30843 20.9628C6.21696 20.9249 6.1388 20.8606 6.08387 20.7783C6.02894 20.6959 5.99972 20.599 5.99989 20.5V19C5.99989 18.7348 5.89454 18.4804 5.707 18.2929C5.51946 18.1054 5.26511 18 4.99989 18H3.49989C3.40096 18 3.30425 17.9706 3.22202 17.9156C3.13978 17.8606 3.07571 17.7824 3.03792 17.691C3.00013 17.5996 2.99031 17.499 3.00971 17.402C3.0291 17.3049 3.07685 17.2159 3.14689 17.146L5.79289 14.5C5.95117 14.3412 6.13929 14.2152 6.34644 14.1294C6.55359 14.0436 6.77567 13.9996 6.99989 14H8.99989C9.26511 14 9.51946 14.1054 9.707 14.2929Z" stroke="black" stroke-width="1.5" stroke-linecap="round"/>
</svg>
