<svg width="24" height="24" viewBox="0 0 24 24" fill="none" xmlns="http://www.w3.org/2000/svg">
<path d="M7.10907 22.3917C7.61136 22.3917 7.95293 22.1302 8.5555 21.5881L12.0312 18.5045H18.4696C21.4628 18.5045 23.0699 16.8472 23.0699 13.9038V6.20966C23.0699 3.26666 21.4628 1.60938 18.4696 1.60938H5.53193C2.54907 1.60938 0.931641 3.2568 0.931641 6.20966V13.9038C0.931641 16.8571 2.54864 18.5045 5.53193 18.5045H6.01407V21.1158C6.01407 21.8894 6.41607 22.3917 7.10907 22.3917ZM7.5205 20.5535V17.6405C7.5205 17.0984 7.31993 16.8871 6.7675 16.8871H5.54178C3.50307 16.8871 2.54864 15.8525 2.54864 13.8939V6.20966C2.54864 4.25109 3.50307 3.2268 5.54221 3.2268H18.4696C20.4985 3.2268 21.4525 4.25109 21.4525 6.20966V13.8939C21.4525 15.8525 20.4985 16.8871 18.4696 16.8871H11.9605C11.4081 16.8871 11.1171 16.9677 10.7348 17.3594L7.5205 20.5535ZM12.0711 12.0858C12.5532 12.0858 12.8344 11.8145 12.8446 11.2925L12.9852 5.98895C12.9951 5.47637 12.5935 5.09495 12.0612 5.09495C11.5186 5.09495 11.1368 5.46652 11.1471 5.97866L11.2876 11.2925C11.2979 11.8047 11.5688 12.0858 12.0711 12.0858ZM12.0711 15.3502C12.6539 15.3502 13.1558 14.8882 13.1558 14.3058C13.1558 13.7229 12.6638 13.2609 12.0715 13.2609C11.4784 13.2609 10.9864 13.7332 10.9864 14.3058C10.9864 14.8784 11.4886 15.3502 12.0711 15.3502Z" fill="black"/>
</svg>
