<svg width="24" height="24" viewBox="0 0 24 24" fill="none" xmlns="http://www.w3.org/2000/svg">
<path d="M8.02074 20C8.42913 20 8.70685 19.7987 9.19678 19.3813L12.0228 17.0073H17.2577C19.6913 17.0073 20.998 15.7314 20.998 13.4653V7.5417C20.998 5.27592 19.6913 4 17.2577 4H6.73841C4.31313 4 2.99805 5.26833 2.99805 7.5417V13.4653C2.99805 15.739 4.31278 17.0073 6.73841 17.0073H7.13042V19.0177C7.13042 19.6133 7.45728 20 8.02074 20ZM8.35526 18.5848V16.3422C8.35526 15.9248 8.19218 15.7621 7.74301 15.7621H6.74642C5.0888 15.7621 4.31278 14.9656 4.31278 13.4577V7.5417C4.31278 6.03382 5.0888 5.24524 6.74677 5.24524H17.2577C18.9073 5.24524 19.683 6.03382 19.683 7.5417V13.4577C19.683 14.9656 18.9073 15.7621 17.2577 15.7621H11.9653C11.5161 15.7621 11.2795 15.8241 10.9687 16.1257L8.35526 18.5848ZM12.0552 12.0657C12.4472 12.0657 12.6758 11.8568 12.6842 11.4549L12.7985 7.37177C12.8065 6.97715 12.48 6.68349 12.0472 6.68349C11.606 6.68349 11.2956 6.96956 11.3039 7.36385L11.4182 11.4549C11.4266 11.8492 11.6468 12.0657 12.0552 12.0657ZM12.0552 14.5789C12.5291 14.5789 12.9371 14.2232 12.9371 13.7748C12.9371 13.3261 12.5371 12.9704 12.0555 12.9704C11.5733 12.9704 11.1732 13.334 11.1732 13.7748C11.1732 14.2156 11.5816 14.5789 12.0552 14.5789Z" fill="#132650"/>
</svg>
