<svg width="24" height="24" viewBox="0 0 24 24" fill="none" xmlns="http://www.w3.org/2000/svg">
<path d="M8.02269 20C8.43108 20 8.70881 19.7987 9.19874 19.3813L12.0247 17.0073H17.2596C19.6933 17.0073 21 15.7314 21 13.4653V7.5417C21 5.27592 19.6933 4 17.2596 4H6.74036C4.31508 4 3 5.26833 3 7.5417V13.4653C3 15.739 4.31474 17.0073 6.74036 17.0073H7.13238V19.0177C7.13238 19.6133 7.45923 20 8.02269 20ZM8.35721 18.5848V16.3422C8.35721 15.9248 8.19413 15.7621 7.74497 15.7621H6.74837C5.09075 15.7621 4.31474 14.9656 4.31474 13.4577V7.5417C4.31474 6.03382 5.09075 5.24524 6.74872 5.24524H17.2596C18.9092 5.24524 19.6849 6.03382 19.6849 7.5417V13.4577C19.6849 14.9656 18.9092 15.7621 17.2596 15.7621H11.9672C11.5181 15.7621 11.2815 15.8241 10.9707 16.1257L8.35721 18.5848ZM12.0571 12.0657C12.4492 12.0657 12.6778 11.8568 12.6861 11.4549L12.8004 7.37177C12.8084 6.97715 12.4819 6.68349 12.0491 6.68349C11.608 6.68349 11.2975 6.96956 11.3059 7.36385L11.4202 11.4549C11.4285 11.8492 11.6488 12.0657 12.0571 12.0657ZM12.0571 14.5789C12.5311 14.5789 12.9391 14.2232 12.9391 13.7748C12.9391 13.3261 12.5391 12.9704 12.0575 12.9704C11.5752 12.9704 11.1752 13.334 11.1752 13.7748C11.1752 14.2156 11.5836 14.5789 12.0571 14.5789Z" fill="black"/>
</svg>
