<svg width="111" height="36" viewBox="0 0 111 36" fill="none" xmlns="http://www.w3.org/2000/svg">
<rect width="111" height="36" rx="5" fill="#132650"/>
<path d="M25.0016 12.5996L25.0016 23.3996M30.4016 17.9996L19.6016 17.9996" stroke="white" stroke-width="1.5" stroke-linecap="round"/>
<path d="M50.692 17.708C50.3747 18.0347 49.9967 18.2913 49.558 18.478C49.1287 18.6647 48.662 18.758 48.158 18.758C47.682 18.758 47.2387 18.674 46.828 18.506C46.4173 18.338 46.058 18.1047 45.75 17.806C45.442 17.5073 45.1993 17.1573 45.022 16.756C44.854 16.3453 44.77 15.8973 44.77 15.412C44.77 14.936 44.854 14.4927 45.022 14.082C45.1993 13.6713 45.442 13.3213 45.75 13.032C46.058 12.7333 46.4173 12.5 46.828 12.332C47.2387 12.164 47.682 12.08 48.158 12.08C48.662 12.08 49.124 12.1687 49.544 12.346C49.9733 12.5233 50.3467 12.7753 50.664 13.102H53.534V11.31H55.382V20.746H53.534V17.708H50.692ZM46.52 15.412C46.52 15.9533 46.674 16.378 46.982 16.686C47.29 16.994 47.682 17.148 48.158 17.148C48.634 17.148 49.026 16.994 49.334 16.686C49.6513 16.378 49.81 15.9533 49.81 15.412C49.81 14.88 49.6513 14.46 49.334 14.152C49.026 13.844 48.634 13.69 48.158 13.69C47.682 13.69 47.29 13.844 46.982 14.152C46.674 14.46 46.52 14.88 46.52 15.412ZM51.462 14.572C51.49 14.7027 51.5133 14.838 51.532 14.978C51.5507 15.118 51.56 15.2627 51.56 15.412C51.56 15.776 51.5273 16.0513 51.462 16.238H53.534V14.572H51.462ZM55.676 23.98H46.884V19.822H48.732V22.51H55.676V23.98ZM68.8769 18.842H57.2149V17.372H62.1149V16.308H58.6289V11.856H67.4769V13.326H60.4629V14.838H67.5469V16.308H63.9629V17.372H68.8769V18.842ZM62.9969 19.472C63.6969 19.472 64.3222 19.5233 64.8729 19.626C65.4236 19.7287 65.8902 19.8827 66.2729 20.088C66.6649 20.2933 66.9636 20.5453 67.1689 20.844C67.3742 21.1333 67.4769 21.4693 67.4769 21.852C67.4769 22.2253 67.3742 22.5613 67.1689 22.86C66.9636 23.1493 66.6649 23.3967 66.2729 23.602C65.8902 23.8073 65.4236 23.9613 64.8729 24.064C64.3222 24.1667 63.6969 24.218 62.9969 24.218C62.2969 24.218 61.6716 24.1667 61.1209 24.064C60.5702 23.9613 60.1036 23.8073 59.7209 23.602C59.3382 23.3967 59.0442 23.1493 58.8389 22.86C58.6336 22.5613 58.5309 22.2253 58.5309 21.852C58.5309 21.4693 58.6336 21.1333 58.8389 20.844C59.0442 20.5453 59.3382 20.2933 59.7209 20.088C60.1036 19.8827 60.5702 19.7287 61.1209 19.626C61.6716 19.5233 62.2969 19.472 62.9969 19.472ZM62.9969 22.818C63.8742 22.818 64.5276 22.7433 64.9569 22.594C65.3862 22.4353 65.6009 22.188 65.6009 21.852C65.6009 21.1987 64.7329 20.872 62.9969 20.872C61.2609 20.872 60.3929 21.1987 60.3929 21.852C60.3929 22.188 60.6076 22.4353 61.0369 22.594C61.4662 22.7433 62.1196 22.818 62.9969 22.818ZM79.9218 17.876V24.204H78.0738V11.31H79.9218V16.35H81.7698V17.876H79.9218ZM77.2338 13.214V14.684H69.7298V13.214H72.5858V11.534H74.4338V13.214H77.2338ZM73.5238 15.412C73.9905 15.412 74.4198 15.4867 74.8118 15.636C75.2131 15.7853 75.5585 16 75.8478 16.28C76.1371 16.5507 76.3611 16.8727 76.5198 17.246C76.6878 17.6193 76.7718 18.03 76.7718 18.478C76.7718 18.9353 76.6878 19.3553 76.5198 19.738C76.3611 20.1113 76.1371 20.438 75.8478 20.718C75.5585 20.9887 75.2131 21.1987 74.8118 21.348C74.4198 21.4973 73.9905 21.572 73.5238 21.572C73.0571 21.572 72.6231 21.4973 72.2218 21.348C71.8205 21.1987 71.4705 20.9887 71.1718 20.718C70.8825 20.438 70.6538 20.1113 70.4858 19.738C70.3271 19.3553 70.2478 18.9353 70.2478 18.478C70.2478 18.03 70.3271 17.6193 70.4858 17.246C70.6538 16.8727 70.8825 16.5507 71.1718 16.28C71.4705 16 71.8205 15.7853 72.2218 15.636C72.6231 15.4867 73.0571 15.412 73.5238 15.412ZM73.5238 20.06C73.9718 20.06 74.3311 19.9247 74.6018 19.654C74.8818 19.374 75.0218 18.982 75.0218 18.478C75.0218 17.9927 74.8818 17.61 74.6018 17.33C74.3311 17.05 73.9718 16.91 73.5238 16.91C73.0758 16.91 72.7118 17.05 72.4318 17.33C72.1518 17.6007 72.0118 17.988 72.0118 18.492C72.0118 18.996 72.1518 19.3833 72.4318 19.654C72.7118 19.9247 73.0758 20.06 73.5238 20.06ZM93.1367 24.19H91.2747V11.296H93.1367V24.19ZM89.3007 12.64C89.3007 13.62 89.2074 14.558 89.0207 15.454C88.8341 16.35 88.5121 17.1947 88.0547 17.988C87.6067 18.772 87.0047 19.5047 86.2487 20.186C85.4927 20.858 84.5407 21.4693 83.3927 22.02L82.4267 20.564C83.2481 20.172 83.9574 19.752 84.5547 19.304C85.1521 18.8467 85.6514 18.352 86.0527 17.82C86.4541 17.288 86.7621 16.714 86.9767 16.098C87.2007 15.482 87.3454 14.8193 87.4107 14.11H83.1127V12.64H89.3007Z" fill="#FAFAFA"/>
</svg>
