<svg width="30" height="28" viewBox="0 0 30 28" fill="none" xmlns="http://www.w3.org/2000/svg">
<path d="M11.1906 26.7804C8.98541 26.1219 6.98819 24.9037 5.39331 23.2444C5.90642 22.6359 6.22629 21.888 6.31197 21.0966C6.39765 20.3052 6.24525 19.5062 5.87427 18.8019C5.50329 18.0976 4.93061 17.52 4.2295 17.143C3.52839 16.7661 2.73075 16.6069 1.93864 16.6858C1.75778 15.8019 1.66709 14.902 1.66798 13.9998C1.66798 12.6064 1.88131 11.2624 2.27864 9.99977H2.33464C3.01448 9.99999 3.68316 9.82693 4.27753 9.49694C4.87191 9.16694 5.37237 8.6909 5.73166 8.11376C6.09096 7.53663 6.29722 6.87744 6.33099 6.19844C6.36475 5.51944 6.2249 4.84304 5.92464 4.2331C7.4882 2.77833 9.37833 1.72043 11.436 1.14844C11.7709 1.80604 12.2812 2.35817 12.9104 2.74374C13.5397 3.12931 14.2633 3.33329 15.0013 3.3331C15.7393 3.33329 16.4629 3.12931 17.0922 2.74374C17.7214 2.35817 18.2317 1.80604 18.5666 1.14844C20.6243 1.72043 22.5144 2.77833 24.078 4.2331C23.7755 4.84731 23.6358 5.52887 23.6721 6.21254C23.7085 6.89621 23.9197 7.55911 24.2856 8.13779C24.6514 8.71646 25.1597 9.19155 25.7617 9.51756C26.3638 9.84358 27.0394 10.0096 27.724 9.99977C28.1298 11.2943 28.3358 12.6431 28.3346 13.9998C28.3346 14.9198 28.2413 15.8184 28.064 16.6864C27.2719 16.6075 26.4742 16.7667 25.7731 17.1437C25.072 17.5207 24.4993 18.0983 24.1283 18.8026C23.7574 19.5069 23.605 20.3059 23.6907 21.0973C23.7763 21.8887 24.0962 22.6365 24.6093 23.2451C23.0143 24.9041 21.0171 26.1221 18.812 26.7804C18.553 25.9733 18.0444 25.2692 17.3596 24.7697C16.6747 24.2702 15.849 24.0011 15.0013 24.0011C14.1536 24.0011 13.3279 24.2702 12.643 24.7697C11.9582 25.2692 11.4496 25.9733 11.1906 26.7804Z" stroke="#111111" stroke-width="1.5" stroke-linejoin="round"/>
<path d="M15.0026 18.6673C15.6154 18.6673 16.2223 18.5466 16.7885 18.3121C17.3546 18.0776 17.8691 17.7338 18.3024 17.3005C18.7358 16.8671 19.0795 16.3527 19.314 15.7865C19.5486 15.2203 19.6693 14.6135 19.6693 14.0007C19.6693 13.3878 19.5486 12.781 19.314 12.2148C19.0795 11.6486 18.7358 11.1342 18.3024 10.7008C17.8691 10.2675 17.3546 9.92373 16.7885 9.68921C16.2223 9.45469 15.6154 9.33398 15.0026 9.33398C13.7649 9.33398 12.5779 9.82565 11.7028 10.7008C10.8276 11.576 10.3359 12.763 10.3359 14.0007C10.3359 15.2383 10.8276 16.4253 11.7028 17.3005C12.5779 18.1757 13.7649 18.6673 15.0026 18.6673Z" stroke="#111111" stroke-width="1.5" stroke-linejoin="round"/>
</svg>
