<svg width="24" height="24" viewBox="0 0 24 24" fill="none" xmlns="http://www.w3.org/2000/svg">
<g clip-path="url(#clip0_2485_64032)">
<path d="M5.10938 15.1356C5.10938 16.51 3.9885 17.6325 2.61394 17.6325C1.23937 17.6325 0.117188 16.51 0.117188 15.1356C0.117188 13.7612 1.23975 12.6387 2.61412 12.6387H5.10956L5.10938 15.1356ZM6.36731 15.1356C6.36731 13.7612 7.48987 12.6387 8.86425 12.6387C10.2386 12.6387 11.3612 13.761 11.3612 15.1356V21.3859C11.3612 22.7603 10.2388 23.8829 8.86425 23.8829C7.48987 23.8829 6.36731 22.7603 6.36731 21.3859V15.1356Z" fill="#DE1C59"/>
<path d="M8.86425 5.10938C7.48987 5.10938 6.36731 3.9885 6.36731 2.61394C6.36731 1.23937 7.48987 0.117188 8.86425 0.117188C10.2386 0.117188 11.3612 1.23975 11.3612 2.61412V5.10956L8.86425 5.10938ZM8.86425 6.36731C10.2386 6.36731 11.3612 7.48987 11.3612 8.86425C11.3612 10.2386 10.2388 11.3612 8.86425 11.3612H2.61394C1.23956 11.3612 0.117188 10.2388 0.117188 8.86425C0.117188 7.48987 1.23975 6.36731 2.61412 6.36731H8.86425Z" fill="#35C5F0"/>
<path d="M18.8885 8.86425C18.8885 7.48987 20.0094 6.36731 21.384 6.36731C22.7585 6.36731 23.8809 7.48987 23.8809 8.86425C23.8809 10.2386 22.7583 11.3612 21.384 11.3612H18.8885V8.86425ZM17.6306 8.86425C17.6306 10.2386 16.508 11.3612 15.1337 11.3612C13.7593 11.3612 12.6367 10.2388 12.6367 8.86425V2.61394C12.6367 1.23956 13.7591 0.117188 15.1337 0.117188C16.508 0.117188 17.6306 1.23975 17.6306 2.61412V8.86425Z" fill="#2EB57D"/>
<path d="M15.1337 18.8905C16.508 18.8905 17.6306 20.0114 17.6306 21.3859C17.6306 22.7605 16.508 23.8829 15.1337 23.8829C13.7593 23.8829 12.6367 22.7603 12.6367 21.3859V18.8905H15.1337ZM15.1337 17.6325C13.7593 17.6325 12.6367 16.51 12.6367 15.1356C12.6367 13.7612 13.7591 12.6387 15.1337 12.6387H21.384C22.7583 12.6387 23.8809 13.761 23.8809 15.1356C23.8809 16.51 22.7583 17.6325 21.384 17.6325H15.1337Z" fill="#EBB02E"/>
</g>
<defs>
<clipPath id="clip0_2485_64032">
<rect width="24" height="24" fill="white"/>
</clipPath>
</defs>
</svg>
