<svg width="24" height="24" viewBox="0 0 24 24" fill="none" xmlns="http://www.w3.org/2000/svg">
<path d="M15.1985 19.202V17.6016C15.1985 16.7527 14.8613 15.9386 14.2611 15.3384C13.6608 14.7381 12.8467 14.4009 11.9978 14.4009H7.19679C6.34791 14.4009 5.5338 14.7381 4.93356 15.3384C4.33331 15.9386 3.99609 16.7527 3.99609 17.6016V19.202M15.1985 4.90125C15.8849 5.07918 16.4927 5.47999 16.9266 6.04075C17.3606 6.60151 17.596 7.29048 17.596 7.99952C17.596 8.70856 17.3606 9.39754 16.9266 9.9583C16.4927 10.5191 15.8849 10.9199 15.1985 11.0978M19.9996 19.202V17.6016C19.999 16.8924 19.763 16.2035 19.3285 15.643C18.894 15.0825 18.2857 14.6822 17.599 14.5049M12.798 7.99952C12.798 9.76722 11.365 11.2002 9.59731 11.2002C7.82961 11.2002 6.39661 9.76722 6.39661 7.99952C6.39661 6.23183 7.82961 4.79883 9.59731 4.79883C11.365 4.79883 12.798 6.23183 12.798 7.99952Z" stroke="#132650" stroke-width="1.5" stroke-linecap="round" stroke-linejoin="round"/>
</svg>
