<svg width="42" height="42" viewBox="0 0 42 42" fill="none" xmlns="http://www.w3.org/2000/svg">
<path d="M12.25 36.1585V33.25C12.25 32.3217 12.6187 31.4315 13.2751 30.7751C13.9315 30.1187 14.8217 29.75 15.75 29.75H26.25C27.1783 29.75 28.0685 30.1187 28.7249 30.7751C29.3813 31.4315 29.75 32.3217 29.75 33.25V36.1585M38.5 21C38.5 30.665 30.665 38.5 21 38.5C11.335 38.5 3.5 30.665 3.5 21C3.5 11.335 11.335 3.5 21 3.5C30.665 3.5 38.5 11.335 38.5 21ZM26.25 17.5C26.25 20.3995 23.8995 22.75 21 22.75C18.1005 22.75 15.75 20.3995 15.75 17.5C15.75 14.6005 18.1005 12.25 21 12.25C23.8995 12.25 26.25 14.6005 26.25 17.5Z" stroke="black" stroke-width="2.5" stroke-linecap="round" stroke-linejoin="round"/>
</svg>
