<svg width="24" height="24" viewBox="0 0 24 24" fill="none" xmlns="http://www.w3.org/2000/svg">
<path d="M13.9959 18.2622L14.7457 17.9557M14.7457 16.1136L13.9959 15.8063M16.065 14.8107L15.7539 14.0701M16.065 19.2587L15.7539 20M17.9301 14.8107L18.2413 14.0701M18.2405 20L17.9301 19.2587M4 19.4416C4.00009 18.4315 4.24159 17.4356 4.70484 16.535C5.16809 15.6344 5.84002 14.8546 6.66598 14.2588C7.49194 13.6631 8.44861 13.2683 9.45819 13.1065C10.4678 12.9448 11.5017 13.0207 12.476 13.328M19.2494 16.1136L20 15.8063M19.2494 17.9557L20 18.263M14.5605 9.01155C14.5605 11.2271 12.742 13.0231 10.4988 13.0231C8.25555 13.0231 6.43704 11.2271 6.43704 9.01155C6.43704 6.79603 8.25555 5 10.4988 5C12.742 5 14.5605 6.79603 14.5605 9.01155ZM19.4346 17.0347C19.4346 18.364 18.3435 19.4416 16.9976 19.4416C15.6516 19.4416 14.5605 18.364 14.5605 17.0347C14.5605 15.7053 15.6516 14.6277 16.9976 14.6277C18.3435 14.6277 19.4346 15.7053 19.4346 17.0347Z" stroke="black" stroke-width="1.5" stroke-linecap="round" stroke-linejoin="round"/>
</svg>
