<svg width="18" height="18" viewBox="0 0 18 18" fill="none" xmlns="http://www.w3.org/2000/svg">
<g clip-path="url(#clip0_3131_87417)">
<path d="M9 17C13.4183 17 17 13.4183 17 9C17 4.58172 13.4183 1 9 1C4.58172 1 1 4.58172 1 9C1 13.4183 4.58172 17 9 17Z" fill="white"/>
<path d="M9 9.8C10.3255 9.8 11.4 8.72548 11.4 7.4C11.4 6.07452 10.3255 5 9 5C7.67452 5 6.6 6.07452 6.6 7.4C6.6 8.72548 7.67452 9.8 9 9.8Z" fill="white"/>
<path d="M5 15.9296V14.6C5 14.1757 5.16857 13.7687 5.46863 13.4686C5.76869 13.1686 6.17565 13 6.6 13H11.4C11.8243 13 12.2313 13.1686 12.5314 13.4686C12.8314 13.7687 13 14.1757 13 14.6V15.9296" fill="white"/>
<path d="M5 15.9296V14.6C5 14.1757 5.16857 13.7687 5.46863 13.4686C5.76869 13.1686 6.17565 13 6.6 13H11.4C11.8243 13 12.2313 13.1686 12.5314 13.4686C12.8314 13.7687 13 14.1757 13 14.6V15.9296M17 9C17 13.4183 13.4183 17 9 17C4.58172 17 1 13.4183 1 9C1 4.58172 4.58172 1 9 1C13.4183 1 17 4.58172 17 9ZM11.4 7.4C11.4 8.72548 10.3255 9.8 9 9.8C7.67452 9.8 6.6 8.72548 6.6 7.4C6.6 6.07452 7.67452 5 9 5C10.3255 5 11.4 6.07452 11.4 7.4Z" stroke="black" stroke-width="1.14286" stroke-linecap="round" stroke-linejoin="round"/>
</g>
<defs>
<clipPath id="clip0_3131_87417">
<rect width="18" height="18" fill="white"/>
</clipPath>
</defs>
</svg>
