<svg width="24" height="24" viewBox="0 0 24 24" fill="none" xmlns="http://www.w3.org/2000/svg">
<path d="M15.199 19.202V17.6016C15.199 16.7527 14.8618 15.9386 14.2616 15.3384C13.6613 14.7381 12.8472 14.4009 11.9983 14.4009H7.19728C6.3484 14.4009 5.53429 14.7381 4.93404 15.3384C4.3338 15.9386 3.99658 16.7527 3.99658 17.6016V19.202M15.199 4.90125C15.8854 5.07918 16.4932 5.47999 16.9271 6.04075C17.3611 6.60151 17.5965 7.29048 17.5965 7.99952C17.5965 8.70856 17.3611 9.39754 16.9271 9.9583C16.4932 10.5191 15.8854 10.9199 15.199 11.0978M20.0001 19.202V17.6016C19.9995 16.8924 19.7635 16.2035 19.329 15.643C18.8945 15.0825 18.2862 14.6822 17.5995 14.5049M12.7985 7.99952C12.7985 9.76722 11.3655 11.2002 9.5978 11.2002C7.8301 11.2002 6.3971 9.76722 6.3971 7.99952C6.3971 6.23183 7.8301 4.79883 9.5978 4.79883C11.3655 4.79883 12.7985 6.23183 12.7985 7.99952Z" stroke="black" stroke-width="1.5" stroke-linecap="round" stroke-linejoin="round"/>
</svg>
