<svg width="24" height="24" viewBox="0 0 24 24" fill="none" xmlns="http://www.w3.org/2000/svg">
<path d="M12 20C16.4183 20 20 16.4183 20 12C20 7.58172 16.4183 4 12 4C7.58172 4 4 7.58172 4 12C4 16.4183 7.58172 20 12 20Z" fill="white"/>
<path d="M12 12.8C13.3255 12.8 14.4 11.7255 14.4 10.4C14.4 9.07452 13.3255 8 12 8C10.6745 8 9.6 9.07452 9.6 10.4C9.6 11.7255 10.6745 12.8 12 12.8Z" fill="white"/>
<path d="M8 18.9296V17.6C8 17.1757 8.16857 16.7687 8.46863 16.4686C8.76869 16.1686 9.17565 16 9.6 16H14.4C14.8243 16 15.2313 16.1686 15.5314 16.4686C15.8314 16.7687 16 17.1757 16 17.6V18.9296" fill="white"/>
<path d="M8 18.9296V17.6C8 17.1757 8.16857 16.7687 8.46863 16.4686C8.76869 16.1686 9.17565 16 9.6 16H14.4C14.8243 16 15.2313 16.1686 15.5314 16.4686C15.8314 16.7687 16 17.1757 16 17.6V18.9296M20 12C20 16.4183 16.4183 20 12 20C7.58172 20 4 16.4183 4 12C4 7.58172 7.58172 4 12 4C16.4183 4 20 7.58172 20 12ZM14.4 10.4C14.4 11.7255 13.3255 12.8 12 12.8C10.6745 12.8 9.6 11.7255 9.6 10.4C9.6 9.07452 10.6745 8 12 8C13.3255 8 14.4 9.07452 14.4 10.4Z" stroke="black" stroke-width="1.14286" stroke-linecap="round" stroke-linejoin="round"/>
</svg>
