<svg width="25" height="24" viewBox="0 0 25 24" fill="none" xmlns="http://www.w3.org/2000/svg">
<path d="M2.10156 20.9927C2.10168 19.7349 2.39867 18.4948 2.9684 17.3734C3.53812 16.252 4.36448 15.2809 5.38028 14.539C6.39608 13.7972 7.57263 13.3056 8.81424 13.1042C10.0559 12.9028 11.3275 12.9972 12.5257 13.3799M22.0826 21.9918L20.1844 20.0936M15.0893 8.00504C15.0893 10.7638 12.8528 13.0003 10.094 13.0003C7.33518 13.0003 5.09872 10.7638 5.09872 8.00504C5.09872 5.24622 7.33518 3.00977 10.094 3.00977C12.8528 3.00977 15.0893 5.24622 15.0893 8.00504ZM21.0836 17.9956C21.0836 19.6509 19.7417 20.9927 18.0864 20.9927C16.4311 20.9927 15.0893 19.6509 15.0893 17.9956C15.0893 16.3403 16.4311 14.9984 18.0864 14.9984C19.7417 14.9984 21.0836 16.3403 21.0836 17.9956Z" stroke="black" stroke-width="1.99811" stroke-linecap="round" stroke-linejoin="round"/>
</svg>
