<svg width="24" height="24" viewBox="0 0 24 24" fill="none" xmlns="http://www.w3.org/2000/svg">
<g clip-path="url(#clip0_3196_76888)">
<path d="M6.66732 21.2401V19.4673C6.66732 18.9015 6.89208 18.3589 7.29216 17.9588C7.69223 17.5587 8.23486 17.334 8.80065 17.334H15.2007C15.7664 17.334 16.3091 17.5587 16.7091 17.9588C17.1092 18.3589 17.334 18.9015 17.334 19.4673V21.2401M22.6673 12.0007C22.6673 17.8917 17.8917 22.6673 12.0007 22.6673C6.10961 22.6673 1.33398 17.8917 1.33398 12.0007C1.33398 6.10961 6.10961 1.33398 12.0007 1.33398C17.8917 1.33398 22.6673 6.10961 22.6673 12.0007ZM15.2007 9.86732C15.2007 11.6346 13.768 13.0673 12.0007 13.0673C10.2333 13.0673 8.80065 11.6346 8.80065 9.86732C8.80065 8.10001 10.2333 6.66732 12.0007 6.66732C13.768 6.66732 15.2007 8.10001 15.2007 9.86732Z" stroke="black" stroke-width="1.14286" stroke-linecap="round" stroke-linejoin="round"/>
</g>
<defs>
<clipPath id="clip0_3196_76888">
<rect width="24" height="24" fill="white"/>
</clipPath>
</defs>
</svg>
