<svg width="16" height="16" viewBox="0 0 16 16" fill="none" xmlns="http://www.w3.org/2000/svg">
<path d="M0 0.97998L5.33332 4.9764V0.97998H0Z" fill="#132650"/>
<path d="M16.0013 0.97998L10.668 4.9764V0.97998H16.0013Z" fill="#132650"/>
<path d="M7.66831 8.00948V11.6123H3.33504C1.90832 11.6123 0.743167 10.4927 0.671647 9.08535L0.668377 8.94816H5.00165C5.18556 8.94816 5.33514 8.79913 5.33514 8.61499C5.33514 8.43085 5.18597 8.28182 5.00165 8.28182H0.667969V5.61768H5.27424L7.66831 8.00948ZM12.6681 5.61768C14.141 5.61768 15.3348 6.81031 15.3348 8.28182V8.94775C15.3348 10.4193 14.141 11.6119 12.6681 11.6119H8.33488V7.88822L10.6076 5.61768H12.6681Z" fill="#132650"/>
<path d="M5.66661 12.2529H10.3334C11.2537 12.2529 12 12.9985 12 13.918C12 14.8375 11.2537 15.583 10.3334 15.583H5.66661C4.74626 15.583 4 14.8375 4 13.918C4 12.9985 4.74626 12.2529 5.66661 12.2529Z" fill="#132650"/>
</svg>
