<svg width="32" height="32" viewBox="0 0 32 32" fill="none" xmlns="http://www.w3.org/2000/svg">
<path d="M17.2945 22.6182L17.1724 23H11L11.1548 22.6182C11.7741 22.6041 12.1836 22.556 12.3833 22.4737C12.7072 22.3563 12.9463 22.1946 13.1007 21.9886C13.3449 21.6644 13.5962 21.086 13.8546 20.2536L16.4651 11.8075C16.6866 11.1066 16.7969 10.5768 16.7961 10.2182C16.802 10.0561 16.7517 9.89669 16.6526 9.76355C16.5397 9.6304 16.3854 9.53315 16.2108 9.48515C16.0187 9.41623 15.6386 9.38178 15.0705 9.38178L15.2039 9H21L20.8792 9.38178C20.4068 9.37473 20.0564 9.42289 19.8282 9.52626C19.5169 9.64787 19.2511 9.85262 19.0642 10.1148C18.8955 10.3693 18.6744 10.9339 18.4009 11.8087L15.8005 20.2547C15.5656 21.0316 15.4481 21.5269 15.4481 21.7407C15.4481 21.9122 15.4921 22.0602 15.5802 22.1848C15.6759 22.3022 15.8232 22.395 16.022 22.4632C16.2284 22.5258 16.6526 22.5775 17.2945 22.6182Z" fill="#111111"/>
</svg>
