<svg width="32" height="32" viewBox="0 0 32 32" fill="none" xmlns="http://www.w3.org/2000/svg">
<path d="M14.2773 16.2539H22.001" stroke="#111111" stroke-width="1.5" stroke-linecap="round" stroke-linejoin="round"/>
<path d="M14.2773 20.7598H22.001" stroke="#111111" stroke-width="1.5" stroke-linecap="round" stroke-linejoin="round"/>
<path d="M14.2773 11.748H22.001" stroke="#111111" stroke-width="1.5" stroke-linecap="round" stroke-linejoin="round"/>
<path d="M10.8047 10.9235V10.2129H11.9941V13.0359H11.2025V10.9235H10.8047Z" fill="#111111"/>
<path d="M10.2187 16.9348C10.4684 16.7391 10.6731 16.5705 10.8327 16.4289C10.9923 16.2873 11.1262 16.1418 11.2343 15.9925C11.3424 15.8406 11.3965 15.6964 11.3965 15.56C11.3965 15.4776 11.3772 15.4132 11.3386 15.3669C11.3025 15.3205 11.2485 15.2974 11.1764 15.2974C11.1017 15.2974 11.0438 15.3295 11.0026 15.3939C10.9614 15.4557 10.9421 15.5471 10.9447 15.6681H10.2109C10.2187 15.439 10.2689 15.2497 10.3615 15.1004C10.4542 14.9485 10.5752 14.8378 10.7246 14.7683C10.8739 14.6962 11.0399 14.6602 11.2227 14.6602C11.5394 14.6602 11.775 14.7387 11.9294 14.8957C12.0839 15.0528 12.1611 15.2562 12.1611 15.5059C12.1611 15.7736 12.071 16.0247 11.8908 16.2589C11.7132 16.4932 11.4905 16.7031 11.2227 16.8884H12.1882V17.5024H10.2187V16.9348Z" fill="#111111"/>
<path d="M10.277 20.0658C10.2873 19.7748 10.3774 19.5522 10.5473 19.3977C10.7172 19.2406 10.9541 19.1621 11.2579 19.1621C11.4561 19.1621 11.6248 19.1969 11.7638 19.2664C11.9054 19.3333 12.0122 19.426 12.0843 19.5444C12.1564 19.6603 12.1924 19.7916 12.1924 19.9383C12.1924 20.1134 12.15 20.2537 12.065 20.3593C11.98 20.4623 11.8835 20.5318 11.7754 20.5678V20.5833C12.0869 20.6991 12.2426 20.9205 12.2426 21.2475C12.2426 21.4097 12.2053 21.5526 12.1307 21.6761C12.056 21.7997 11.9479 21.8963 11.8063 21.9658C11.6647 22.0353 11.496 22.07 11.3004 22.07C10.9785 22.07 10.7237 21.9928 10.5357 21.8383C10.3504 21.6813 10.2538 21.4419 10.2461 21.12H10.9837C10.9785 21.223 11.0004 21.3028 11.0493 21.3595C11.0983 21.4161 11.1716 21.4444 11.2695 21.4444C11.3441 21.4444 11.4021 21.4213 11.4433 21.3749C11.487 21.3286 11.5089 21.2668 11.5089 21.1896C11.5089 21.0917 11.4767 21.0196 11.4124 20.9733C11.3506 20.927 11.2489 20.9038 11.1073 20.9038H10.9721V20.2898H11.1034C11.2012 20.2923 11.2836 20.2769 11.3506 20.2434C11.4201 20.2074 11.4548 20.1366 11.4548 20.031C11.4548 19.9512 11.4355 19.892 11.3969 19.8534C11.3583 19.8122 11.3055 19.7916 11.2386 19.7916C11.1639 19.7916 11.1086 19.8186 11.0725 19.8727C11.0391 19.9242 11.0197 19.9885 11.0146 20.0658H10.277Z" fill="#111111"/>
</svg>
