<svg width="32" height="32" viewBox="0 0 32 32" fill="none" xmlns="http://www.w3.org/2000/svg">
<path d="M15.2073 9C17.0105 9 18.3629 9.23313 19.2644 9.77711C20.2411 10.3211 20.6919 11.2536 20.6919 12.5747C20.6919 13.3518 20.4665 14.0512 20.166 14.5952C19.9956 14.8609 19.7744 15.0877 19.5159 15.2615C19.2575 15.4352 18.9673 15.5523 18.6634 15.6055C19.0929 15.7092 19.5003 15.8936 19.8655 16.1495C20.166 16.3826 20.4665 16.7711 20.6919 17.1597C20.927 17.7226 21.03 18.3351 20.9924 18.9471C21.019 19.5085 20.9172 20.0685 20.6953 20.5816C20.4734 21.0947 20.1376 21.5464 19.7152 21.9001C18.6457 22.6902 17.3454 23.0744 16.0338 22.9881H11V9H15.2073ZM15.5079 14.5175C16.3343 14.5175 16.9354 14.4398 17.2359 14.129C17.6115 13.8958 17.7618 13.4296 17.7618 12.9633C17.7618 12.4193 17.5364 12.0307 17.1608 11.7976C16.7851 11.5645 16.184 11.4091 15.3576 11.4091H13.855V14.5175H15.5079ZM13.855 16.8489V20.6567H15.7333C16.5597 20.6567 17.2359 20.4236 17.5364 20.1127C17.9121 19.7242 18.0623 19.3356 18.0623 18.7139C18.0713 18.479 18.0286 18.2451 17.9375 18.0297C17.8464 17.8144 17.7093 17.6232 17.5364 17.4705C17.1608 17.1597 16.5597 17.0043 15.6581 17.0043H13.7799L13.855 16.8489Z" fill="#111111"/>
</svg>
