<svg width="24" height="24" viewBox="0 0 24 24" fill="none" xmlns="http://www.w3.org/2000/svg">
<circle cx="12" cy="12" r="11.5" fill="white" stroke="#F3F3F3"/>
<path d="M6 6.73438L9.99999 9.73169V6.73438H6Z" fill="#132650"/>
<path d="M18 6.73438L14 9.73169V6.73438H18Z" fill="#132650"/>
<path d="M11.7503 12.0067V14.7089H8.5003C7.43027 14.7089 6.5564 13.8692 6.50276 12.8136L6.50031 12.7108H9.75026C9.88819 12.7108 10.0004 12.599 10.0004 12.4609C10.0004 12.3228 9.8885 12.211 9.75026 12.211H6.5V10.2129H9.95471L11.7503 12.0067ZM15.5001 10.2129C16.6048 10.2129 17.5001 11.1074 17.5001 12.211V12.7104C17.5001 13.8141 16.6048 14.7086 15.5001 14.7086H12.2502V11.9158L13.9547 10.2129H15.5001Z" fill="#132650"/>
<path d="M10.25 15.1895H13.75C14.4403 15.1895 15 15.7486 15 16.4382C15 17.1278 14.4403 17.687 13.75 17.687H10.25C9.55969 17.687 9 17.1278 9 16.4382C9 15.7486 9.55969 15.1895 10.25 15.1895Z" fill="#132650"/>
</svg>
