<svg width="122" height="112" viewBox="0 0 122 112" fill="none" xmlns="http://www.w3.org/2000/svg">
<g clip-path="url(#clip0_613_38580)">
<path d="M0 0L40.6656 30.4719V0H0Z" fill="#132650"/>
<path d="M122 0L81.334 30.4719V0H122Z" fill="#132650"/>
<path d="M43.2096 86.3359H78.7928C85.8103 86.3359 91.5004 92.0206 91.5004 99.0315C91.5004 106.042 85.8103 111.727 78.7928 111.727H43.2096C36.192 111.727 30.502 106.042 30.502 99.0315C30.502 92.0206 36.192 86.3359 43.2096 86.3359Z" fill="#132650"/>
<path d="M58.4604 53.7879V81.2587H25.4199C14.5415 81.2587 5.65735 72.7223 5.11203 61.9911L5.0871 60.9451H38.1275C39.5298 60.9451 40.6703 59.8088 40.6703 58.4047C40.6703 57.0007 39.5329 55.8644 38.1275 55.8644H5.08398V35.5508H40.206L58.4604 53.7879ZM96.5832 35.5508C107.814 35.5508 116.916 44.6444 116.916 55.8644V60.942C116.916 72.1619 107.814 81.2556 96.5832 81.2556H63.5428V52.8633L80.8716 35.5508H96.5832Z" fill="#132650"/>
</g>
<defs>
<clipPath id="clip0_613_38580">
<rect width="122" height="111.726" fill="white"/>
</clipPath>
</defs>
</svg>
